<?xml version="1.0" encoding="utf-8"?>
<!-- Generator: Adobe Illustrator 23.0.4, SVG Export Plug-In . SVG Version: 6.00 Build 0)  -->
<svg version="1.1" id="Layer_1_copy" xmlns="http://www.w3.org/2000/svg" xmlns:xlink="http://www.w3.org/1999/xlink" x="0px"
	 y="0px" viewBox="0 0 110.75 64.4" style="enable-background:new 0 0 110.75 64.4;" xml:space="preserve">
<style type="text/css">
	.st0{fill:#7D6C39;}
	.st1{fill:#FFFFFF;}
</style>
<rect x="2.59" y="20.15" class="st0" width="105.72" height="19"/>
<g>
	<path class="st1" d="M9.02,16.81c-0.6-0.15-1.14-0.39-1.6-0.71c-0.46-0.33-0.83-0.75-1.11-1.27s-0.42-1.16-0.43-1.92H7.5
		c0.01,0.53,0.11,0.97,0.29,1.31c0.18,0.35,0.43,0.63,0.73,0.85c0.31,0.22,0.67,0.37,1.07,0.46c0.41,0.09,0.84,0.13,1.3,0.13
		c0.44,0,0.84-0.04,1.22-0.13c0.37-0.08,0.7-0.22,0.97-0.42c0.27-0.19,0.48-0.45,0.63-0.77s0.22-0.73,0.22-1.22
		c0-0.59-0.19-1.06-0.57-1.4s-0.86-0.63-1.43-0.87c-0.57-0.24-1.19-0.45-1.86-0.65C9.4,10.01,8.78,9.76,8.21,9.45
		s-1.05-0.71-1.43-1.2C6.4,7.76,6.21,7.11,6.21,6.3c0-0.64,0.12-1.2,0.36-1.68s0.56-0.87,0.97-1.19s0.88-0.55,1.41-0.71
		c0.53-0.15,1.1-0.23,1.69-0.23c0.58,0,1.14,0.06,1.69,0.17c0.55,0.12,1.04,0.31,1.47,0.59s0.78,0.64,1.03,1.09
		c0.26,0.45,0.39,1.01,0.39,1.68h-1.53c-0.01-0.44-0.11-0.79-0.28-1.07c-0.17-0.28-0.4-0.5-0.68-0.67S12.14,4,11.78,3.93
		c-0.35-0.06-0.72-0.1-1.09-0.1S9.96,3.87,9.62,3.96c-0.34,0.08-0.64,0.22-0.91,0.4C8.45,4.54,8.23,4.78,8.07,5.07
		c-0.16,0.3-0.24,0.66-0.24,1.08c0,0.46,0.11,0.85,0.33,1.17s0.51,0.59,0.87,0.81c0.36,0.23,0.77,0.42,1.24,0.59
		c0.46,0.17,0.94,0.33,1.42,0.5s0.96,0.35,1.42,0.55s0.88,0.44,1.24,0.73s0.65,0.64,0.87,1.06c0.22,0.42,0.33,0.93,0.33,1.54
		c0,0.72-0.12,1.33-0.35,1.83s-0.55,0.9-0.97,1.21c-0.41,0.31-0.9,0.53-1.46,0.67c-0.56,0.14-1.16,0.2-1.81,0.2
		C10.27,17.03,9.62,16.96,9.02,16.81z"/>
	<path class="st1" d="M19.24,2.74h1.51v14.01h-1.51V2.74z"/>
	<path class="st1" d="M34.13,2.8h1.53v13.95h-1.78L26.67,5.24v11.51h-1.51V2.8h1.62l7.34,11.73L34.13,2.8L34.13,2.8z"/>
	<path class="st1" d="M42.72,16.45c-0.78-0.39-1.43-0.92-1.94-1.58c-0.52-0.66-0.9-1.44-1.14-2.32c-0.25-0.88-0.37-1.81-0.37-2.77
		c0-0.97,0.12-1.89,0.37-2.77c0.24-0.88,0.62-1.65,1.14-2.32c0.52-0.66,1.16-1.19,1.94-1.58s1.71-0.59,2.79-0.59s2.02,0.2,2.8,0.59
		c0.79,0.39,1.43,0.92,1.94,1.58s0.89,1.44,1.13,2.32s0.37,1.81,0.37,2.77c0,0.97-0.12,1.89-0.37,2.77s-0.62,1.65-1.13,2.32
		c-0.51,0.66-1.16,1.19-1.94,1.58c-0.79,0.39-1.72,0.59-2.8,0.59C44.43,17.03,43.5,16.84,42.72,16.45z M43.42,4.43
		c-0.58,0.33-1.06,0.77-1.44,1.31c-0.38,0.55-0.66,1.17-0.83,1.87s-0.26,1.42-0.26,2.15s0.09,1.45,0.26,2.15
		c0.17,0.7,0.45,1.33,0.83,1.87c0.38,0.55,0.86,0.98,1.44,1.31s1.27,0.49,2.09,0.49c0.81,0,1.51-0.16,2.1-0.49s1.07-0.77,1.45-1.31
		c0.38-0.55,0.66-1.17,0.83-1.87s0.26-1.42,0.26-2.15c0-0.73-0.09-1.45-0.26-2.15c-0.17-0.7-0.45-1.33-0.83-1.87
		c-0.38-0.55-0.86-0.99-1.45-1.31c-0.59-0.33-1.28-0.49-2.1-0.49C44.7,3.94,44,4.1,43.42,4.43z"/>
	<path class="st1" d="M14.91,22.8h1.64l-5.08,13.95H9.79L4.65,22.8h1.76l4.29,12.02L14.91,22.8z"/>
	<path class="st1" d="M19,22.8h8.42v1.41h-6.9v4.64h6.63v1.41h-6.63v5.08h7.17v1.41H19C19,36.75,19,22.8,19,22.8z"/>
	<path class="st1" d="M40.27,22.8h1.53v13.95h-1.78l-7.2-11.52v11.52h-1.51V22.8h1.62l7.34,11.73C40.27,34.53,40.27,22.8,40.27,22.8
		z"/>
	<path class="st1" d="M50.28,36.75H48.7l-0.02-12.44h-4.42V22.8h10.39v1.51H50.3L50.28,36.75z"/>
	<path class="st1" d="M60.21,36.66c-0.64-0.25-1.19-0.61-1.63-1.06c-0.44-0.46-0.79-1.01-1.02-1.65c-0.24-0.64-0.36-1.36-0.36-2.16
		v-8.98h1.62v8.96c0,0.55,0.08,1.06,0.24,1.53c0.16,0.46,0.39,0.86,0.7,1.19c0.3,0.33,0.68,0.59,1.12,0.77
		c0.44,0.19,0.95,0.28,1.52,0.28s1.07-0.09,1.52-0.28c0.44-0.19,0.82-0.44,1.12-0.77s0.53-0.72,0.7-1.19
		c0.16-0.46,0.24-0.97,0.24-1.53v-8.96h1.62v8.98c0,0.8-0.12,1.52-0.36,2.16s-0.58,1.19-1.02,1.65c-0.44,0.46-0.99,0.81-1.63,1.06
		c-0.64,0.25-1.37,0.38-2.18,0.38C61.58,37.03,60.85,36.91,60.21,36.66z"/>
	<path class="st1" d="M77.09,30.81h-3.63v5.93h-1.53V22.8h3.77c0.71,0,1.39,0.04,2.06,0.13c0.66,0.08,1.25,0.26,1.77,0.54
		c0.52,0.28,0.93,0.68,1.24,1.21s0.46,1.24,0.46,2.12c0,0.95-0.23,1.73-0.69,2.33s-1.12,1.03-1.98,1.3l3.5,6.32h-1.7L77.09,30.81z
		 M73.46,24.21v5.18h2.84c0.45,0,0.88-0.04,1.28-0.13c0.41-0.08,0.76-0.23,1.06-0.43c0.3-0.2,0.54-0.46,0.71-0.79
		s0.26-0.74,0.26-1.25c0-0.54-0.08-0.98-0.24-1.32c-0.16-0.34-0.39-0.6-0.68-0.79c-0.29-0.19-0.64-0.31-1.04-0.38
		c-0.41-0.06-0.86-0.1-1.36-0.1h-2.83V24.21z"/>
	<path class="st1" d="M85.13,22.8h8.42v1.41h-6.9v4.64h6.63v1.41h-6.63v5.08h7.17v1.41h-8.69C85.13,36.75,85.13,22.8,85.13,22.8z"/>
	<path class="st1" d="M99.9,36.81c-0.61-0.15-1.14-0.39-1.6-0.71c-0.46-0.33-0.83-0.75-1.11-1.27s-0.42-1.16-0.43-1.92h1.62
		c0.01,0.53,0.11,0.97,0.29,1.31c0.18,0.35,0.43,0.63,0.73,0.85c0.31,0.22,0.67,0.37,1.07,0.46c0.41,0.09,0.84,0.13,1.3,0.13
		c0.44,0,0.84-0.04,1.22-0.13c0.37-0.08,0.7-0.22,0.97-0.41s0.48-0.45,0.63-0.77c0.15-0.32,0.22-0.73,0.22-1.22
		c0-0.59-0.19-1.06-0.57-1.4c-0.38-0.34-0.86-0.63-1.43-0.87c-0.57-0.24-1.19-0.45-1.86-0.65c-0.67-0.19-1.29-0.44-1.86-0.75
		s-1.05-0.71-1.43-1.2s-0.57-1.14-0.57-1.95c0-0.64,0.12-1.2,0.36-1.68s0.56-0.87,0.97-1.19s0.88-0.55,1.41-0.71
		c0.53-0.15,1.1-0.23,1.69-0.23c0.58,0,1.14,0.06,1.69,0.17c0.55,0.12,1.04,0.31,1.47,0.59c0.43,0.28,0.78,0.64,1.03,1.09
		c0.26,0.45,0.39,1.01,0.39,1.68h-1.53c-0.01-0.44-0.11-0.79-0.28-1.07s-0.4-0.5-0.68-0.67s-0.59-0.28-0.95-0.35
		c-0.35-0.06-0.72-0.1-1.09-0.1s-0.73,0.04-1.07,0.13c-0.34,0.08-0.64,0.22-0.91,0.4c-0.26,0.18-0.48,0.42-0.64,0.71
		c-0.16,0.3-0.24,0.66-0.24,1.08c0,0.46,0.11,0.85,0.33,1.17s0.51,0.59,0.87,0.81c0.36,0.23,0.77,0.42,1.24,0.59
		c0.46,0.17,0.94,0.33,1.42,0.5s0.96,0.35,1.42,0.55c0.46,0.2,0.88,0.44,1.24,0.73s0.65,0.64,0.87,1.06
		c0.22,0.42,0.33,0.93,0.33,1.54c0,0.72-0.12,1.33-0.35,1.83c-0.23,0.5-0.55,0.9-0.97,1.21s-0.9,0.53-1.46,0.67
		c-0.56,0.14-1.16,0.2-1.81,0.2C101.15,37.03,100.51,36.96,99.9,36.81z"/>
	<path class="st1" d="M9.71,56.63c-0.88-0.32-1.59-0.79-2.14-1.41s-0.96-1.38-1.22-2.3c-0.26-0.91-0.39-1.96-0.39-3.15
		c0-0.86,0.12-1.73,0.36-2.6c0.24-0.87,0.6-1.65,1.09-2.34c0.49-0.69,1.11-1.25,1.86-1.68s1.64-0.65,2.68-0.65
		c0.57,0,1.13,0.08,1.7,0.24c0.57,0.16,1.08,0.41,1.55,0.73c0.46,0.33,0.85,0.74,1.16,1.24s0.5,1.07,0.56,1.73h-1.7
		c-0.05-0.42-0.18-0.79-0.38-1.11s-0.45-0.58-0.74-0.78c-0.3-0.21-0.63-0.36-1-0.46s-0.75-0.15-1.14-0.15
		c-0.79,0-1.45,0.18-2.01,0.53c-0.55,0.35-1,0.81-1.35,1.37C8.25,46.4,8,47.03,7.84,47.72c-0.16,0.7-0.24,1.38-0.24,2.05
		c0,0.93,0.09,1.76,0.28,2.49c0.19,0.73,0.49,1.35,0.92,1.86c0.42,0.51,0.98,0.9,1.66,1.17s1.51,0.41,2.49,0.41
		c0.41,0,0.83-0.02,1.25-0.07c0.42-0.04,0.83-0.1,1.25-0.16v-5.16h-3.94v-1.43h5.41v7.84c-0.7,0.12-1.37,0.21-2.03,0.28
		s-1.31,0.11-1.97,0.11C11.65,57.11,10.59,56.95,9.71,56.63z"/>
	<path class="st1" d="M26.42,50.81h-3.63v5.93h-1.53V42.8h3.77c0.71,0,1.39,0.04,2.06,0.13c0.66,0.08,1.25,0.26,1.77,0.54
		s0.93,0.68,1.24,1.21s0.46,1.24,0.46,2.12c0,0.95-0.23,1.73-0.69,2.33s-1.12,1.03-1.98,1.3l3.5,6.32h-1.7L26.42,50.81z
		 M22.79,44.21v5.18h2.84c0.45,0,0.88-0.04,1.28-0.13c0.41-0.08,0.76-0.23,1.06-0.43c0.3-0.2,0.54-0.46,0.71-0.79
		s0.26-0.74,0.26-1.25c0-0.54-0.08-0.98-0.24-1.32s-0.39-0.6-0.68-0.79s-0.64-0.31-1.04-0.38c-0.41-0.06-0.86-0.1-1.36-0.1
		L22.79,44.21L22.79,44.21z"/>
	<path class="st1" d="M36.84,56.45c-0.78-0.39-1.43-0.92-1.94-1.58c-0.52-0.66-0.9-1.44-1.14-2.32c-0.24-0.88-0.37-1.81-0.37-2.77
		c0-0.97,0.12-1.89,0.37-2.77s0.62-1.65,1.14-2.32c0.52-0.66,1.16-1.19,1.94-1.58s1.71-0.59,2.79-0.59s2.02,0.2,2.8,0.59
		c0.79,0.39,1.43,0.92,1.94,1.58s0.89,1.44,1.13,2.32c0.25,0.88,0.37,1.81,0.37,2.77c0,0.97-0.12,1.89-0.37,2.77
		c-0.24,0.88-0.62,1.65-1.13,2.32c-0.51,0.66-1.16,1.19-1.94,1.58c-0.79,0.39-1.72,0.59-2.8,0.59
		C38.55,57.03,37.62,56.84,36.84,56.45z M37.55,44.43c-0.58,0.33-1.06,0.77-1.44,1.31c-0.38,0.55-0.66,1.17-0.83,1.87
		c-0.17,0.7-0.26,1.42-0.26,2.15s0.09,1.45,0.26,2.15c0.17,0.7,0.45,1.33,0.83,1.87c0.38,0.55,0.86,0.98,1.44,1.31
		c0.58,0.33,1.27,0.49,2.09,0.49c0.81,0,1.51-0.16,2.1-0.49c0.59-0.33,1.07-0.77,1.45-1.31c0.38-0.55,0.66-1.17,0.83-1.87
		c0.17-0.7,0.26-1.42,0.26-2.15s-0.09-1.45-0.26-2.15c-0.17-0.7-0.45-1.33-0.83-1.87c-0.38-0.55-0.86-0.99-1.45-1.31
		c-0.59-0.33-1.28-0.49-2.1-0.49C38.82,43.94,38.13,44.1,37.55,44.43z"/>
	<path class="st1" d="M52.58,56.66c-0.64-0.25-1.19-0.61-1.63-1.06c-0.44-0.46-0.79-1.01-1.02-1.65c-0.24-0.64-0.36-1.36-0.36-2.16
		v-8.98h1.62v8.96c0,0.55,0.08,1.06,0.24,1.53c0.16,0.46,0.39,0.86,0.7,1.19c0.3,0.33,0.68,0.59,1.12,0.77
		c0.44,0.19,0.95,0.28,1.52,0.28s1.07-0.09,1.52-0.28c0.44-0.19,0.82-0.44,1.12-0.77c0.3-0.33,0.53-0.72,0.7-1.19
		c0.16-0.46,0.24-0.97,0.24-1.53v-8.96h1.62v8.98c0,0.8-0.12,1.52-0.36,2.16c-0.24,0.64-0.58,1.19-1.02,1.65
		c-0.44,0.46-0.99,0.81-1.63,1.06s-1.37,0.38-2.18,0.38C53.95,57.03,53.22,56.91,52.58,56.66z"/>
	<path class="st1" d="M66.59,50.81c-0.26,0-0.52-0.01-0.78-0.02v5.95H64.3V42.8h3.75c0.7,0,1.38,0.04,2.05,0.13
		c0.67,0.08,1.26,0.27,1.78,0.55c0.52,0.28,0.93,0.69,1.25,1.21s0.47,1.23,0.47,2.12c0,0.62-0.09,1.14-0.27,1.57
		s-0.43,0.79-0.73,1.09c-0.31,0.3-0.67,0.53-1.09,0.71s-0.86,0.32-1.31,0.42c-0.46,0.1-0.93,0.16-1.41,0.18
		c-0.48,0.03-0.95,0.04-1.4,0.04L66.59,50.81L66.59,50.81z M65.81,44.21v5.18h2.86c0.45,0,0.88-0.04,1.27-0.13
		c0.4-0.08,0.75-0.23,1.05-0.43s0.54-0.46,0.71-0.79s0.26-0.74,0.26-1.25c0-0.54-0.08-0.98-0.24-1.31c-0.16-0.33-0.39-0.6-0.68-0.79
		S70.4,44.37,70,44.3c-0.41-0.06-0.85-0.1-1.34-0.1L65.81,44.21L65.81,44.21z"/>
</g>
</svg>
